<svg xmlns="http://www.w3.org/2000/svg" data-name="Layer 1" viewBox="0 0 100 125" x="0px" y="0px"><title>67</title><path d="M60.28027,5H39.71A34.75312,34.75312,0,0,0,5,39.71649v.35935A34.53113,34.53113,0,0,0,22.51855,70.235L18.90137,89.78745a4.34432,4.34432,0,0,0,2.18554,4.63935A4.43737,4.43737,0,0,0,23.25586,95a4.382,4.382,0,0,0,2.94726-1.15227l21.167-19.06516H60.28027A34.7525,34.7525,0,0,0,95,40.07584v-.35935A34.7577,34.7577,0,0,0,60.28027,5ZM90,40.07584a29.74677,29.74677,0,0,1-29.71973,29.707H45.4502l-21.31446,19.198,3.97364-21.481-1.67969-.84174A29.57787,29.57787,0,0,1,10,40.07584v-.35935A29.74739,29.74739,0,0,1,39.71,9.99967H60.28027A29.752,29.752,0,0,1,90,39.71649Z"/><text x="0" y="115" fill="#000000" font-size="5px" font-weight="bold" font-family="'Helvetica Neue', Helvetica, Arial-Unicode, Arial, Sans-serif">Created by Markus</text><text x="0" y="120" fill="#000000" font-size="5px" font-weight="bold" font-family="'Helvetica Neue', Helvetica, Arial-Unicode, Arial, Sans-serif">from the Noun Project</text></svg>