<svg xmlns="http://www.w3.org/2000/svg" xmlns:xlink="http://www.w3.org/1999/xlink" version="1.1" x="0px" y="0px" viewBox="0 0 64 80" enable-background="new 0 0 64 64" xml:space="preserve"><g><path d="M53.492,12.408c-2.88-3.08-6.745-4.846-10.603-4.846c-3.352,0-6.436,1.322-8.685,3.726L32,13.645l-2.203-2.357   c-2.25-2.402-5.334-3.725-8.686-3.725c-3.858,0-7.724,1.766-10.605,4.845c-5.554,5.937-6.024,15.094-1.049,20.414l21.812,23.3   c0.189,0.202,0.453,0.316,0.73,0.316s0.541-0.114,0.73-0.316l8.379-8.949c0.008-0.009,0.015-0.017,0.023-0.025   c0.002-0.002,0.003-0.004,0.005-0.006l13.403-14.318C59.52,27.503,59.05,18.345,53.492,12.408z"/></g><text x="0" y="79" fill="#000000" font-size="5px" font-weight="bold" font-family="'Helvetica Neue', Helvetica, Arial-Unicode, Arial, Sans-serif">Created by Alfonso López-Sanz</text><text x="0" y="84" fill="#000000" font-size="5px" font-weight="bold" font-family="'Helvetica Neue', Helvetica, Arial-Unicode, Arial, Sans-serif">from the Noun Project</text></svg>