<svg xmlns="http://www.w3.org/2000/svg" xmlns:xlink="http://www.w3.org/1999/xlink" version="1.1" x="0px" y="0px" viewBox="0 0 1024 1280" style="enable-background:new 0 0 1024 1024;" xml:space="preserve"><g><g><path d="M212.3,924.6c0-6.6,0-13.2,0-19.8c0-17.9,0-35.9,0-53.8c0-26.4,0-52.7,0-79.1c0-32.2,0-64.5,0-96.7    c0-35.2,0-70.5,0-105.7c0-35.3,0-70.6,0-105.9c0-32.9,0-65.8,0-98.8c0-27.6,0-55.2,0-82.8c0-19.5,0-38.9,0-58.4    c0-8.6,0-17.1,0-25.7c0-4.4,0.3-8.7,0.8-13c-0.4,2.7-0.7,5.3-1.1,8c1.2-8.9,3.6-17.6,7.1-25.9c-1,2.4-2,4.8-3,7.2    c2.5-5.7,5.4-11.1,8.8-16.2c0.7-1.1,1.5-2.1,2.3-3.2c2.9-4.1-5.4,6.5-0.6,0.9c1.8-2.2,3.8-4.3,5.8-6.3c2-2,4.1-3.9,6.3-5.8    c5.6-4.7-5,3.5-0.9,0.6c1.1-0.8,2.1-1.5,3.2-2.3c5.1-3.5,10.5-6.4,16.2-8.8c-2.4,1-4.8,2-7.2,3c8.3-3.5,17-5.9,25.9-7.1    c-2.7,0.4-5.3,0.7-8,1.1c18-2.2,36.9-0.8,55-0.8c37.5,0,74.9,0,112.4,0c45.7,0,91.4,0,137.1,0c39.3,0,78.6,0,117.9,0    c17.7,0,35.5-0.1,53.2,0c4.2,0,8.4,0.3,12.6,0.8c-2.7-0.4-5.3-0.7-8-1.1c8.9,1.2,17.6,3.6,25.9,7.1c-2.4-1-4.8-2-7.2-3    c5.7,2.5,11.1,5.4,16.2,8.8c1.1,0.7,2.1,1.5,3.2,2.3c4.1,2.9-6.5-5.4-0.9-0.6c2.2,1.8,4.3,3.8,6.3,5.8c2,2,3.9,4.1,5.8,6.3    c4.7,5.6-3.5-5-0.6-0.9c0.8,1.1,1.5,2.1,2.3,3.2c3.5,5.1,6.4,10.5,8.8,16.2c-1-2.4-2-4.8-3-7.2c3.5,8.3,5.9,17,7.1,25.9    c-0.4-2.7-0.7-5.3-1.1-8c1.2,9.6,0.8,19.5,0.8,29.2c0,17.1,0,34.2,0,51.3c0,25.7,0,51.5,0,77.2c0,31.9,0,63.7,0,95.6    c0,35.1,0,70.2,0,105.3c0,35.4,0,70.8,0,106.2c0,33.2,0,66.5,0,99.7c0,28.1,0,56.3,0,84.4c0,20.3,0,40.5,0,60.8    c0,9.6-0.2,19.2,0,28.7c0,0.4,0,0.8,0,1.3c15-8.6,30.1-17.3,45.1-25.9c-10.9-8-21.9-15.9-32.8-23.9    c-26.3-19.1-52.5-38.2-78.8-57.3c-31.8-23.1-63.5-46.2-95.3-69.4c-27.4-20-54.9-40-82.3-59.9c-13.3-9.7-26.3-19.9-39.9-29.1    c-0.2-0.1-0.4-0.3-0.6-0.4c-7.8-5.7-22.5-5.7-30.3,0c-10.9,8-21.9,15.9-32.8,23.9c-26.3,19.1-52.5,38.2-78.8,57.3    c-31.8,23.1-63.5,46.2-95.3,69.4c-27.4,20-54.9,40-82.3,59.9c-13.3,9.7-26.7,19.3-39.9,29.1c-0.2,0.1-0.4,0.3-0.6,0.4    c-6.5,4.7-11.6,9.9-13.8,17.9c-2,7.2-1.1,16.7,3,23.1c8.1,12.5,27.5,20.6,41,10.8c10.9-8,21.9-15.9,32.8-23.9    c26.3-19.1,52.5-38.2,78.8-57.3c31.8-23.1,63.5-46.2,95.3-69.4c27.4-20,54.9-40,82.3-59.9c13.3-9.7,27-18.9,39.9-29.1    c0.2-0.1,0.4-0.3,0.6-0.4c-10.1,0-20.2,0-30.3,0c10.9,8,21.9,15.9,32.8,23.9c26.3,19.1,52.5,38.2,78.8,57.3    c31.8,23.1,63.5,46.2,95.3,69.4c27.4,20,54.9,40,82.3,59.9c13.3,9.7,26.3,19.9,39.9,29.1c0.2,0.1,0.4,0.3,0.6,0.4    c8.4,6.1,21.7,5,30.3,0c9.1-5.3,14.9-15.3,14.9-25.9c0-12.9,0-25.8,0-38.7c0-33.4,0-66.7,0-100.1c0-45.7,0-91.5,0-137.2    c0-50.3,0-100.6,0-150.9c0-47.2,0-94.3,0-141.5c0-35.9,0-71.8,0-107.7c0-16.7,0-33.4,0-50.1c0-30.5-10.6-58.4-29.3-82.2    c-23.4-29.8-61.2-46.7-98.8-46.9c-20.4-0.1-40.8,0-61.2,0c-44.7,0-89.3,0-134,0c-49.2,0-98.4,0-147.6,0c-34.5,0-68.9,0-103.4,0    c-5.7,0-11.3,0-17,0c-42.1,0.3-79.9,20.9-104.6,54.6c-15.8,21.5-23.4,48.4-23.5,74.9c0,5.7,0,11.4,0,17.2c0,27.6,0,55.2,0,82.8    c0,42.7,0,85.5,0,128.2c0,49.9,0,99.7,0,149.6c0,48.9,0,97.8,0,146.7c0,40.2,0,80.5,0,120.7c0,23.7,0,47.5,0,71.2    c0,3.2,0,6.3,0,9.5c0,15.7,13.8,30.7,30,30C198.6,953.9,212.3,941.4,212.3,924.6z"/></g></g><text x="0" y="1039" fill="#000000" font-size="5px" font-weight="bold" font-family="'Helvetica Neue', Helvetica, Arial-Unicode, Arial, Sans-serif">Created by shashank singh</text><text x="0" y="1044" fill="#000000" font-size="5px" font-weight="bold" font-family="'Helvetica Neue', Helvetica, Arial-Unicode, Arial, Sans-serif">from the Noun Project</text></svg>