<svg xmlns="http://www.w3.org/2000/svg" viewBox="0 0 62 70" x="0px" y="0px"><path d="M31,54 C31.4305433,54 31.8055706,53.8318053 32.1739437,53.4541816 L55.4416602,29.6021637 C58.4858468,26.4815311 60,22.6768052 60,18.132287 C60,13.5877688 58.4858468,9.78304287 55.4416602,6.66241028 C52.4017537,3.54616537 48.723,2 44.3464567,2 C39.889913,2 36.1721459,3.5470916 33.133143,6.66241028 C33.0070253,6.79169499 32.5359739,7.35505557 31.7759548,8.28998137 C31.3706275,8.78858846 30.6069808,8.78099276 30.2116516,8.27442186 C29.9239806,7.90580316 29.4338842,7.36475293 28.7487468,6.66241028 C25.7088404,3.54616537 22.0300866,2 17.6535433,2 C13.277,2 9.59824626,3.54616537 6.55833981,6.66241028 C3.51415316,9.78304287 2,13.5877688 2,18.132287 C2,22.6768052 3.51415316,26.4815311 6.55833981,29.6021637 L29.8260563,53.4541816 C30.1944294,53.8318053 30.5694567,54 31,54 Z M31.7015027,5.26584084 C35.119225,1.76229235 39.3541343,0 44.3464567,0 C49.2612985,0 53.4564817,1.76321858 56.8733004,5.26584084 C60.285839,8.76407542 62,13.071376 62,18.132287 C62,23.193198 60.285839,27.5004986 56.8733004,30.9987332 L33.6055839,54.8507511 C32.8715892,55.6031779 31.9867866,56 31,56 C30.0132134,56 29.1284108,55.6031779 28.3944161,54.8507511 L5.12669956,30.9987332 C1.71416101,27.5004986 0,23.193198 0,18.132287 C0,13.071376 1.71416101,8.76407542 5.12669956,5.26584084 C8.54351831,1.76321858 12.7387015,0 17.6535433,0 C22.5683851,0 26.7635683,1.76321858 30.1803871,5.26584084 C30.4797091,5.5726795 30.7458283,5.85251231 30.9792514,6.10610261 C31.3452834,5.66385345 31.5812096,5.38915481 31.7015027,5.26584084 Z"/><text x="0" y="71" fill="#000000" font-size="5px" font-weight="bold" font-family="'Helvetica Neue', Helvetica, Arial-Unicode, Arial, Sans-serif">Created by jenya</text><text x="0" y="76" fill="#000000" font-size="5px" font-weight="bold" font-family="'Helvetica Neue', Helvetica, Arial-Unicode, Arial, Sans-serif">from the Noun Project</text></svg>