<svg xmlns="http://www.w3.org/2000/svg" xmlns:xlink="http://www.w3.org/1999/xlink" version="1.1" x="0px" y="0px" viewBox="0 0 100 125" enable-background="new 0 0 100 100" xml:space="preserve"><g><path d="M52.3,15.1c-0.4,0-0.8-0.1-1.2-0.1c-6.5,0-12.6,5.9-13.1,13.9c-0.4,7.7,6.4,14.7,9.7,16.4c-0.3,0-0.5,0-0.8,0   c-1.5,0-2.8,0.4-3.3,1.6c0,0.1-0.1,0.2,0,0.3c0,0.2,0.2,0.3,0.4,0.4c0.3,0.1,0.7,0.2,1,0.2c0.5,0,1.1-0.2,1.5-0.5   c0.4-0.3,0.8-0.8,1.3-1c-2.7,4.2-1.1,9.3,0.3,13.8c0.2,0.5,0.3,1.1,0.5,1.6c0.6,2.1,0.6,3.9-0.2,5.3c-0.4,0.8-1,1.6-1.6,2.3   c-0.6,0.7-1.1,1.4-1.6,2.2c-3.1,5.3-1.4,11.2,0.6,16.2c0.1,0.2,0.3,0.3,0.5,0.3c0.1,0,0.1,0,0.2,0c0.3-0.1,0.4-0.4,0.3-0.6   C44.8,82.6,43.2,77,46,72.1c0.4-0.7,1-1.4,1.5-2.1c0.6-0.8,1.3-1.6,1.7-2.5c0.9-1.7,1-3.7,0.3-6.1c-0.2-0.5-0.3-1.1-0.5-1.6   c-1.4-4.5-2.9-9.5-0.1-13.4c0.4,0.2,0.9,0.6,1.3,0.9c0.9,0.7,2,1,3.1,1c0.1,0,0.3,0,0.4,0c0.2-0.6-0.4-1.2-1-1.6   c-0.6-0.3-1.7-0.7-3-1c3.7-0.7,11.8-6.2,13.3-13.8C64.7,23.5,59.2,15.9,52.3,15.1z M45.9,46.4c-0.2,0.2-0.6,0.3-0.9,0.3   c0,0-0.1,0-0.1,0c0.3-0.2,0.7-0.4,1.2-0.4C46,46.4,46,46.4,45.9,46.4z M62,31.6c-1.6,7.8-10.5,13-13,13c-0.1,0-0.1,0-0.2,0   C46.7,44.4,38.5,36.9,39,29C39.4,21.8,44.8,16,51.1,16c0.4,0,0.7,0,1.1,0.1c2.9,0.3,5.7,2.1,7.6,4.7C62,23.9,62.8,27.8,62,31.6z"/><path d="M48.3,18.3C48.3,18.3,48.3,18.3,48.3,18.3c-2.4,0-4.9,1.9-5.9,4.4c-0.1,0.3,0,0.5,0.3,0.7c0.1,0,0.1,0,0.2,0   c0.2,0,0.4-0.1,0.5-0.3c0.9-2.2,3-3.8,5-3.8c0,0,0,0,0,0c0.3,0,0.5-0.2,0.5-0.5C48.8,18.5,48.6,18.3,48.3,18.3z"/></g><text x="0" y="115" fill="#000000" font-size="5px" font-weight="bold" font-family="'Helvetica Neue', Helvetica, Arial-Unicode, Arial, Sans-serif">Created by Sasha Sash</text><text x="0" y="120" fill="#000000" font-size="5px" font-weight="bold" font-family="'Helvetica Neue', Helvetica, Arial-Unicode, Arial, Sans-serif">from the Noun Project</text></svg>