<svg xmlns="http://www.w3.org/2000/svg" xmlns:xlink="http://www.w3.org/1999/xlink" viewBox="0 0 256 320" version="1.1" x="0px" y="0px"><title>location</title><desc>Created with Sketch.</desc><g stroke="none" stroke-width="1" fill="none" fill-rule="evenodd"><g transform="translate(49.000000, 11.000000)" fill="#000000" fill-rule="nonzero"><path d="M80.6182582,236.037612 C79.8196355,237.137263 78.1803645,237.137263 77.3817418,236.037612 C24.4677688,163.178559 -2,111.704711 -2,81.225147 C-2,35.2734093 34.2523115,-2 79,-2 C123.747688,-2 160,35.2734093 160,81.225147 C160,111.704711 133.532231,163.178559 80.6182582,236.037612 Z M156,81.225147 C156,37.4580647 121.513302,2 79,2 C36.486698,2 2,37.4580647 2,81.225147 C2,110.25471 27.6596992,160.457326 79,231.454078 C130.340301,160.457326 156,110.25471 156,81.225147 Z"/><path d="M79,111 C56.90861,111 39,93.09139 39,71 C39,48.90861 56.90861,31 79,31 C101.09139,31 119,48.90861 119,71 C119,93.09139 101.09139,111 79,111 Z M79,107 C98.882251,107 115,90.882251 115,71 C115,51.117749 98.882251,35 79,35 C59.117749,35 43,51.117749 43,71 C43,90.882251 59.117749,107 79,107 Z"/></g></g><text x="0" y="271" fill="#000000" font-size="5px" font-weight="bold" font-family="'Helvetica Neue', Helvetica, Arial-Unicode, Arial, Sans-serif">Created by Anup</text><text x="0" y="276" fill="#000000" font-size="5px" font-weight="bold" font-family="'Helvetica Neue', Helvetica, Arial-Unicode, Arial, Sans-serif">from the Noun Project</text></svg>