<svg xmlns="http://www.w3.org/2000/svg" xmlns:xlink="http://www.w3.org/1999/xlink" version="1.1" x="0px" y="0px" viewBox="0 0 48 60" style="enable-background:new 0 0 48 48;" xml:space="preserve"><style type="text/css">
	.st0{fill:none;}
</style><path d="M38.1,22.8v16.6c0,1.3-1.1,2.4-2.4,2.4h-6.4c-1.3,0-2.4-1.1-2.4-2.4v-7.1c0-0.2-0.2-0.4-0.4-0.4h-4.6  c-0.2,0-0.4,0.2-0.4,0.4v7.1c0,1.3-1.1,2.4-2.4,2.4h-6.6c-1.3,0-2.4-1.1-2.4-2.4V22.8c0-0.6,0.4-1,1-1s1,0.4,1,1v16.6  c0,0.2,0.2,0.4,0.4,0.4h6.6c0.2,0,0.4-0.2,0.4-0.4v-7.1c0-1.3,1.1-2.4,2.4-2.4h4.6c1.3,0,2.4,1.1,2.4,2.4v7.1c0,0.2,0.2,0.4,0.4,0.4  h6.4c0.2,0,0.4-0.2,0.4-0.4V22.8c0-0.6,0.4-1,1-1S38.1,22.3,38.1,22.8z M43.6,21L24.5,6.5c-0.6-0.4-1.3-0.4-1.9,0L4.3,21.1  c-0.4,0.3-0.5,1-0.2,1.4c0.2,0.2,0.5,0.4,0.8,0.4c0.2,0,0.4-0.1,0.6-0.2l18-14.3l18.9,14.3c0.4,0.3,1.1,0.3,1.4-0.2  S44.1,21.4,43.6,21z"/><text x="0" y="63" fill="#000000" font-size="5px" font-weight="bold" font-family="'Helvetica Neue', Helvetica, Arial-Unicode, Arial, Sans-serif">Created by Jessigue</text><text x="0" y="68" fill="#000000" font-size="5px" font-weight="bold" font-family="'Helvetica Neue', Helvetica, Arial-Unicode, Arial, Sans-serif">from the Noun Project</text></svg>