<svg xmlns="http://www.w3.org/2000/svg" xmlns:xlink="http://www.w3.org/1999/xlink" viewBox="0 0 100 125" version="1.1" x="0px" y="0px"><title>Bell v1.2</title><desc>Created with Sketch.</desc><g stroke="none" stroke-width="1" fill="none" fill-rule="evenodd"><g fill-rule="nonzero" fill="#000000"><path d="M42,67 L44,67 C44,70.3137085 46.6862915,73 50,73 C53.3137085,73 56,70.3137085 56,67 L58,67 C58,71.418278 54.418278,75 50,75 C45.581722,75 42,71.418278 42,67 Z M75,62.9983345 L75,64.0018986 C75,65.6638395 73.6579878,67 71.9986107,67 L28.0013893,67 C26.3433202,67 25,65.6583707 25,64.0018986 L25,62.9983345 C25,59.6889869 27.6863164,57.0049783 31,57.0000069 L31,43.9992494 C31,33.5034274 39.5051683,25 50,25 C60.4948506,25 69,33.5055082 69,43.9992494 L69,57.0000064 C72.3199024,57.0049625 75,59.6854471 75,62.9983345 Z M68.990778,59 C67.892318,59 67,58.1009732 67,57.0072136 L67,43.9992494 C67,34.6100588 59.3902622,27 50,27 C40.6096462,27 33,34.6080885 33,43.9992494 L33,57.0072136 C33,58.1059532 32.1031658,59 31.009222,59 C28.7949757,59 27,60.7913845 27,62.9983345 L27,64.0018986 C27,64.5532369 27.4473262,65 28.0013893,65 L71.9986107,65 C72.55537,65 73,64.5573088 73,64.0018986 L73,62.9983345 C73,60.7873973 71.2108155,59 68.990778,59 Z"/></g></g><text x="0" y="115" fill="#000000" font-size="5px" font-weight="bold" font-family="'Helvetica Neue', Helvetica, Arial-Unicode, Arial, Sans-serif">Created by Landan Lloyd</text><text x="0" y="120" fill="#000000" font-size="5px" font-weight="bold" font-family="'Helvetica Neue', Helvetica, Arial-Unicode, Arial, Sans-serif">from the Noun Project</text></svg>