<svg xmlns="http://www.w3.org/2000/svg" xmlns:xlink="http://www.w3.org/1999/xlink" version="1.1" x="0px" y="0px" viewBox="0 0 48 60" style="enable-background:new 0 0 48 48;" xml:space="preserve"><style type="text/css">
	.st0{fill:none;}
</style><path d="M38.6,12.5H9.4c-1.6,0-2.9,1.3-2.9,2.9v17.2c0,1.6,1.3,2.9,2.9,2.9h29.2c1.6,0,2.9-1.3,2.9-2.9V15.4  C41.5,13.8,40.2,12.5,38.6,12.5z M38.1,14.5L24.5,24c-0.3,0.2-0.7,0.2-0.9,0L9.9,14.5H38.1z M38.6,33.5H9.4c-0.5,0-0.9-0.4-0.9-0.9  V16l13.9,9.6c0.5,0.3,1,0.5,1.6,0.5s1.1-0.2,1.6-0.5L39.5,16v16.6C39.5,33.1,39.1,33.5,38.6,33.5z"/><text x="0" y="63" fill="#000000" font-size="5px" font-weight="bold" font-family="'Helvetica Neue', Helvetica, Arial-Unicode, Arial, Sans-serif">Created by Jessigue</text><text x="0" y="68" fill="#000000" font-size="5px" font-weight="bold" font-family="'Helvetica Neue', Helvetica, Arial-Unicode, Arial, Sans-serif">from the Noun Project</text></svg>