<svg xmlns="http://www.w3.org/2000/svg" viewBox="0 0 32 40" x="0px" y="0px"><title>phone</title><g data-name="Layer 2"><path d="M26,18.5H19.39l1.25-5H26a.5.5,0,0,0,0-1H20.89l1.59-6.38a.49.49,0,1,0-1-.24L19.86,12.5h-6l1.59-6.38a.49.49,0,0,0-1-.24L12.86,12.5H6a.5.5,0,0,0,0,1h6.61l-1.25,5H6a.5.5,0,0,0,0,1h5.11L9.52,25.88a.48.48,0,0,0,.36.6.25.25,0,0,0,.12,0,.49.49,0,0,0,.48-.38l1.66-6.62h6l-1.59,6.38a.48.48,0,0,0,.36.6.25.25,0,0,0,.12,0,.49.49,0,0,0,.48-.38l1.66-6.62H26a.5.5,0,0,0,0-1Zm-7.64,0h-6l1.25-5h6Z"/></g><text x="0" y="47" fill="#000000" font-size="5px" font-weight="bold" font-family="'Helvetica Neue', Helvetica, Arial-Unicode, Arial, Sans-serif">Created by Ilham Fitrotul Hayat</text><text x="0" y="52" fill="#000000" font-size="5px" font-weight="bold" font-family="'Helvetica Neue', Helvetica, Arial-Unicode, Arial, Sans-serif">from the Noun Project</text></svg>