<svg xmlns="http://www.w3.org/2000/svg" xmlns:xlink="http://www.w3.org/1999/xlink" version="1.1" x="0px" y="0px" viewBox="0 0 91 113.75" enable-background="new 0 0 91 91" xml:space="preserve"><g><path d="M1.206,47.063c0,0.73,0.318,1.426,0.871,1.902l26.381,22.738c0.475,0.41,1.059,0.611,1.639,0.611   c0.707,0,1.408-0.297,1.904-0.873c0.906-1.051,0.787-2.639-0.262-3.543L10.481,49.574h76.867c1.387,0,2.514-1.125,2.514-2.512   s-1.127-2.512-2.514-2.512H10.483l21.256-18.322c1.049-0.904,1.168-2.492,0.262-3.543c-0.904-1.049-2.494-1.174-3.543-0.262   L2.077,45.16C1.524,45.637,1.206,46.332,1.206,47.063z"/></g><text x="0" y="106" fill="#000000" font-size="5px" font-weight="bold" font-family="'Helvetica Neue', Helvetica, Arial-Unicode, Arial, Sans-serif">Created by BomSymbols</text><text x="0" y="111" fill="#000000" font-size="5px" font-weight="bold" font-family="'Helvetica Neue', Helvetica, Arial-Unicode, Arial, Sans-serif">from the Noun Project</text></svg>