<svg xmlns="http://www.w3.org/2000/svg" xmlns:xlink="http://www.w3.org/1999/xlink" version="1.1" x="0px" y="0px" viewBox="0 0 100 125" style="enable-background:new 0 0 100 100;" xml:space="preserve"><g><path d="M93.8,53c-1.3-0.9-3.1-0.7-4.1,0.6l-8.4,11.5V37.4c0-6.4-5.2-11.7-11.7-11.7H32.1l4.2,5.8h33.3c3.2,0,5.8,2.6,5.8,5.8V65   l-8.3-11.4c-1-1.3-2.8-1.6-4.1-0.6c-1.2,0.9-1.5,2.5-0.8,3.8c0.1,0.1,0.1,0.2,0.2,0.3l8.3,11.4l3.9,5.3c0.1,0.1,0.2,0.3,0.3,0.4   l0,0l0,0.1h0c0.9,0.9,2.1,1.4,3.3,1.4c1.5,0,2.9-0.7,3.8-1.9L94.4,57C95.4,55.7,95.1,53.9,93.8,53z"/><path d="M30.3,68.5c-3.2,0-5.8-2.6-5.8-5.8V35l8.3,11.4c0.6,0.8,1.5,1.2,2.4,1.2c0.6,0,1.2-0.2,1.7-0.6c1.2-0.9,1.5-2.4,0.9-3.7   l0,0l0,0c-0.1-0.1-0.1-0.2-0.2-0.3l-8.3-11.4l-3.9-5.3c-0.1-0.1-0.2-0.2-0.3-0.3l0-0.1l0,0l0-0.1h0c-0.9-0.9-2.1-1.4-3.4-1.4   c-1.5,0-2.9,0.7-3.8,1.9L5.6,43c-1,1.3-0.7,3.1,0.6,4.1c1.3,0.9,3.1,0.7,4.1-0.6l8.4-11.5v27.7c0,6.4,5.2,11.7,11.7,11.7h37.6   l-4.2-5.8H30.3z"/></g><text x="0" y="115" fill="#000000" font-size="5px" font-weight="bold" font-family="'Helvetica Neue', Helvetica, Arial-Unicode, Arial, Sans-serif">Created by IconMark</text><text x="0" y="120" fill="#000000" font-size="5px" font-weight="bold" font-family="'Helvetica Neue', Helvetica, Arial-Unicode, Arial, Sans-serif">from the Noun Project</text></svg>