<svg xmlns="http://www.w3.org/2000/svg" xmlns:xlink="http://www.w3.org/1999/xlink" version="1.1" x="0px" y="0px" viewBox="0 0 100 125" style="enable-background:new 0 0 100 100;" xml:space="preserve"><path d="M50,1C22.9,1,1,22.9,1,50s21.9,49,49,49s49-21.9,49-49S77.1,1,50,1z M68.4,25.5c3.4,0,6.1,2.7,6.1,6.1s-2.7,6.1-6.1,6.1  s-6.1-2.7-6.1-6.1S65,25.5,68.4,25.5z M31.6,25.5c3.4,0,6.1,2.7,6.1,6.1s-2.7,6.1-6.1,6.1s-6.1-2.7-6.1-6.1S28.2,25.5,31.6,25.5z   M50,80.6c-11.2,0-20.9-6-26.3-14.9l7.9-4.7c3.7,6.2,10.6,10.4,18.4,10.4S64.6,67.3,68.4,61l7.9,4.7C70.9,74.7,61.2,80.6,50,80.6z"/><text x="0" y="115" fill="#000000" font-size="5px" font-weight="bold" font-family="'Helvetica Neue', Helvetica, Arial-Unicode, Arial, Sans-serif">Created by Graphik Designz</text><text x="0" y="120" fill="#000000" font-size="5px" font-weight="bold" font-family="'Helvetica Neue', Helvetica, Arial-Unicode, Arial, Sans-serif">from the Noun Project</text></svg>