<svg xmlns="http://www.w3.org/2000/svg" xmlns:xlink="http://www.w3.org/1999/xlink" version="1.1" x="0px" y="0px" viewBox="0 0 100 125" style="enable-background:new 0 0 100 100;" xml:space="preserve"><g><path d="M88.396,11.601c-3.619-3.62-8.43-5.614-13.549-5.614s-9.932,1.994-13.552,5.614c-6.609,6.608-13.674,13.677-20.279,20.291   c-3.621,3.62-5.614,8.432-5.614,13.551c0.001,5.119,1.994,9.929,5.617,13.547c1.167,1.163,2.473,2.17,3.881,2.992   c0.355,0.208,0.743,0.306,1.126,0.306c0.77,0,1.519-0.397,1.935-1.109c0.624-1.067,0.263-2.438-0.804-3.061   c-1.079-0.632-2.082-1.405-2.978-2.297c-2.773-2.771-4.301-6.457-4.301-10.379c0-3.923,1.528-7.611,4.303-10.386   c6.605-6.614,13.671-13.682,20.278-20.291c2.774-2.774,6.464-4.302,10.387-4.302c3.922,0,7.609,1.528,10.384,4.303   c2.776,2.775,4.306,6.463,4.304,10.386c0,3.922-1.531,7.61-4.312,10.387L72.944,47.834c-0.872,0.875-0.872,2.292,0.002,3.165   c0.876,0.874,2.293,0.873,3.165-0.003L88.39,38.704c3.623-3.62,5.62-8.432,5.62-13.55C94.012,20.035,92.019,15.222,88.396,11.601z"/><path d="M55.098,38.017c-1.068-0.624-2.438-0.263-3.06,0.807c-0.622,1.068-0.261,2.438,0.807,3.06   c1.082,0.63,2.082,1.402,2.976,2.295c2.772,2.771,4.302,6.458,4.302,10.379c0,3.923-1.525,7.611-4.3,10.386l-1.269,1.269   c-6.239,6.245-12.825,12.837-19.012,19.021c-2.775,2.775-6.464,4.304-10.387,4.304c-3.923,0-7.61-1.528-10.384-4.305   c-2.776-2.774-4.305-6.463-4.304-10.385c0.001-3.923,1.531-7.61,4.312-10.388l12.279-12.294c0.873-0.875,0.872-2.292-0.003-3.166   c-0.874-0.873-2.292-0.872-3.165,0.002L11.612,61.296c-3.624,3.62-5.621,8.433-5.623,13.551c-0.001,5.118,1.994,9.932,5.616,13.552   c3.619,3.62,8.431,5.614,13.549,5.614c5.118,0,9.931-1.994,13.552-5.613c6.188-6.186,12.774-12.779,19.015-19.024l1.269-1.268   c3.617-3.62,5.61-8.433,5.608-13.551c0-5.117-1.995-9.928-5.614-13.543C57.819,39.849,56.513,38.84,55.098,38.017z"/></g><text x="0" y="115" fill="#000000" font-size="5px" font-weight="bold" font-family="'Helvetica Neue', Helvetica, Arial-Unicode, Arial, Sans-serif">Created by Stock Image Folio</text><text x="0" y="120" fill="#000000" font-size="5px" font-weight="bold" font-family="'Helvetica Neue', Helvetica, Arial-Unicode, Arial, Sans-serif">from the Noun Project</text></svg>