<svg xmlns="http://www.w3.org/2000/svg" xmlns:xlink="http://www.w3.org/1999/xlink" version="1.1" x="0px" y="0px" viewBox="0 0 100 125" enable-background="new 0 0 100 100" xml:space="preserve"><g><path d="M11.466,66.574v21.965h77.073V66.574c0-3.166,2.564-5.73,5.73-5.73s5.73,2.564,5.73,5.73v22.712   C100,95.194,95.194,100,89.286,100H10.717C4.809,100,0,95.194,0,89.286V66.574c0-3.166,2.569-5.73,5.733-5.73   C8.896,60.844,11.466,63.408,11.466,66.574z"/><path d="M54.053,1.68l23.51,23.51c2.239,2.24,2.239,5.869,0,8.107c-2.235,2.24-5.866,2.24-8.103,0L55.924,19.76v43.925   c0,3.165-2.564,5.729-5.73,5.729s-5.731-2.564-5.731-5.729v-44.31L30.548,33.297c-2.239,2.24-5.869,2.24-8.108,0   c-1.119-1.119-1.679-2.588-1.679-4.053s0.56-2.936,1.679-4.055L45.95,1.68C47.023,0.604,48.48,0,50.001,0S52.979,0.604,54.053,1.68   z"/></g><text x="0" y="115" fill="#000000" font-size="5px" font-weight="bold" font-family="'Helvetica Neue', Helvetica, Arial-Unicode, Arial, Sans-serif">Created by Stefan Parnarov</text><text x="0" y="120" fill="#000000" font-size="5px" font-weight="bold" font-family="'Helvetica Neue', Helvetica, Arial-Unicode, Arial, Sans-serif">from the Noun Project</text></svg>