<svg xmlns="http://www.w3.org/2000/svg" xmlns:xlink="http://www.w3.org/1999/xlink" version="1.1" x="0px" y="0px" viewBox="0 0 100 125" style="enable-background:new 0 0 100 100;" xml:space="preserve"><g><path d="M67.6,31.1h-6c-0.3,0-0.5-0.2-0.5-0.5v-2.3c0-0.8-0.7-1.5-1.5-1.5c-0.8,0-1.5,0.7-1.5,1.5v2.3c0,0.3-0.2,0.5-0.5,0.5H42.4   c-0.3,0-0.5-0.2-0.5-0.5v-2.3c0-0.8-0.7-1.5-1.5-1.5c-0.8,0-1.5,0.7-1.5,1.5v2.3c0,0.3-0.2,0.5-0.5,0.5h-6c-1.9,0-3.5,1.6-3.5,3.5   v35.2c0,1.9,1.6,3.5,3.5,3.5h35.2c1.9,0,3.5-1.6,3.5-3.5V34.6C71.1,32.6,69.5,31.1,67.6,31.1z M68.1,69.8c0,0.3-0.2,0.5-0.5,0.5   H32.4c-0.3,0-0.5-0.2-0.5-0.5v-23c0-0.3,0.2-0.5,0.5-0.5h35.2c0.3,0,0.5,0.2,0.5,0.5V69.8z M68.1,42.8c0,0.3-0.2,0.5-0.5,0.5H32.4   c-0.3,0-0.5-0.2-0.5-0.5v-8.2c0-0.3,0.2-0.5,0.5-0.5h6c0.3,0,0.5,0.2,0.5,0.5v2.3c0,0.8,0.7,1.5,1.5,1.5c0.8,0,1.5-0.7,1.5-1.5   v-2.3c0-0.3,0.2-0.5,0.5-0.5h15.2c0.3,0,0.5,0.2,0.5,0.5v2.3c0,0.8,0.7,1.5,1.5,1.5c0.8,0,1.5-0.7,1.5-1.5v-2.3   c0-0.3,0.2-0.5,0.5-0.5h6c0.3,0,0.5,0.2,0.5,0.5V42.8z"/><path d="M39.6,50.4h-3.3c-0.8,0-1.5,0.7-1.5,1.5s0.7,1.5,1.5,1.5h3.3c0.8,0,1.5-0.7,1.5-1.5S40.5,50.4,39.6,50.4z"/><path d="M51.6,50.4h-3.3c-0.8,0-1.5,0.7-1.5,1.5s0.7,1.5,1.5,1.5h3.3c0.8,0,1.5-0.7,1.5-1.5S52.5,50.4,51.6,50.4z"/><path d="M63.6,50.4h-3.3c-0.8,0-1.5,0.7-1.5,1.5s0.7,1.5,1.5,1.5h3.3c0.8,0,1.5-0.7,1.5-1.5S64.5,50.4,63.6,50.4z"/><path d="M39.6,57h-3.3c-0.8,0-1.5,0.7-1.5,1.5s0.7,1.5,1.5,1.5h3.3c0.8,0,1.5-0.7,1.5-1.5S40.5,57,39.6,57z"/><path d="M51.6,57h-3.3c-0.8,0-1.5,0.7-1.5,1.5s0.7,1.5,1.5,1.5h3.3c0.8,0,1.5-0.7,1.5-1.5S52.5,57,51.6,57z"/><path d="M63.6,57h-3.3c-0.8,0-1.5,0.7-1.5,1.5s0.7,1.5,1.5,1.5h3.3c0.8,0,1.5-0.7,1.5-1.5S64.5,57,63.6,57z"/><path d="M39.6,63.7h-3.3c-0.8,0-1.5,0.7-1.5,1.5s0.7,1.5,1.5,1.5h3.3c0.8,0,1.5-0.7,1.5-1.5S40.5,63.7,39.6,63.7z"/><path d="M51.6,63.7h-3.3c-0.8,0-1.5,0.7-1.5,1.5s0.7,1.5,1.5,1.5h3.3c0.8,0,1.5-0.7,1.5-1.5S52.5,63.7,51.6,63.7z"/><path d="M63.6,63.7h-3.3c-0.8,0-1.5,0.7-1.5,1.5s0.7,1.5,1.5,1.5h3.3c0.8,0,1.5-0.7,1.5-1.5S64.5,63.7,63.6,63.7z"/></g><text x="0" y="115" fill="#000000" font-size="5px" font-weight="bold" font-family="'Helvetica Neue', Helvetica, Arial-Unicode, Arial, Sans-serif">Created by Faris Ma'ruf</text><text x="0" y="120" fill="#000000" font-size="5px" font-weight="bold" font-family="'Helvetica Neue', Helvetica, Arial-Unicode, Arial, Sans-serif">from the Noun Project</text></svg>