<svg xmlns="http://www.w3.org/2000/svg" xmlns:xlink="http://www.w3.org/1999/xlink" version="1.1" x="0px" y="0px" viewBox="0 0 100 125" enable-background="new 0 0 100 100" xml:space="preserve"><path d="M70.201,57.305c0-7.563-4.297-14.548-11.004-17.985v-23.84L67.582,5H32.418l8.383,10.479v23.84  c-6.705,3.438-11.002,10.422-11.002,17.985v1.082h17.793L50,95l2.408-36.613h17.793V57.305z M31.996,56.223  c0.398-6.536,4.371-12.442,10.348-15.249l0.621-0.293v-25.96L36.92,7.165h26.158l-6.045,7.556v25.96l0.623,0.293  c5.977,2.807,9.949,8.713,10.348,15.249H31.996z"/><text x="0" y="115" fill="#000000" font-size="5px" font-weight="bold" font-family="'Helvetica Neue', Helvetica, Arial-Unicode, Arial, Sans-serif">Created by Ates Evren Aydinel</text><text x="0" y="120" fill="#000000" font-size="5px" font-weight="bold" font-family="'Helvetica Neue', Helvetica, Arial-Unicode, Arial, Sans-serif">from the Noun Project</text></svg>