<svg xmlns="http://www.w3.org/2000/svg" xmlns:xlink="http://www.w3.org/1999/xlink" viewBox="0 0 100 125" version="1.1" x="0px" y="0px"><title>Bell v8.5</title><desc>Created with Sketch.</desc><g stroke="none" stroke-width="1" fill="none" fill-rule="evenodd"><g fill-rule="nonzero" fill="#000000"><path d="M76.5,60 C76.5,63.5878573 73.5829191,66.5 69.9901068,66.5 L30.0098932,66.5 C26.4150296,66.5 23.5,63.5915421 23.5,60 C23.5,56.5820408 26.1447986,53.7757073 29.5,53.5191249 L29.5,41.9992494 C29.5,30.6749315 38.6768099,21.5 50,21.5 C61.3232919,21.5 70.5,30.6770953 70.5,41.9992494 L70.5,53.5191677 C73.850837,53.7759629 76.5,56.5810352 76.5,60 Z M69.9979131,58.5 C67.5116547,58.5 65.5,56.4893219 65.5,53.9982567 L65.5,41.9992494 C65.5,33.4384718 58.5618209,26.5 50,26.5 C41.4380046,26.5 34.5,33.4365844 34.5,41.9992494 L34.5,53.9982567 C34.5,56.4828561 32.4840955,58.5 30.0020869,58.5 C29.1742017,58.5 28.5,59.1743732 28.5,60 C28.5,60.827589 29.1739303,61.5 30.0098932,61.5 L69.9901068,61.5 C70.82339,61.5 71.5,60.8245354 71.5,60 C71.5,59.1755733 70.823094,58.5 69.9979131,58.5 Z M40.5,69 L45.5,69 C45.5,71.4852814 47.5147186,73.5 50,73.5 C52.4852814,73.5 54.5,71.4852814 54.5,69 L59.5,69 C59.5,74.2467051 55.2467051,78.5 50,78.5 C44.7532949,78.5 40.5,74.2467051 40.5,69 Z"/></g></g><text x="0" y="115" fill="#000000" font-size="5px" font-weight="bold" font-family="'Helvetica Neue', Helvetica, Arial-Unicode, Arial, Sans-serif">Created by Landan Lloyd</text><text x="0" y="120" fill="#000000" font-size="5px" font-weight="bold" font-family="'Helvetica Neue', Helvetica, Arial-Unicode, Arial, Sans-serif">from the Noun Project</text></svg>