<svg xmlns="http://www.w3.org/2000/svg" viewBox="0 0 32 40" x="0px" y="0px"><title>mal baru23</title><g data-name="Layer 13"><path d="M29.26,13.15h-1a12.48,12.48,0,0,0-1.58-3.82l.68-.69a2,2,0,0,0,0-2.76L26.12,4.61a2,2,0,0,0-2.76,0l-.69.68a12.48,12.48,0,0,0-3.82-1.58v-1a2,2,0,0,0-2-2H15.1a2,2,0,0,0-2,2v1A12.48,12.48,0,0,0,9.32,5.29l-.69-.68a2,2,0,0,0-2.76,0L4.61,5.88a2,2,0,0,0,0,2.76l.68.69a12.48,12.48,0,0,0-1.58,3.82h-1a2,2,0,0,0-2,2v1.8a2,2,0,0,0,2,2h1a12.48,12.48,0,0,0,1.58,3.82l-.68.69a2,2,0,0,0,0,2.76l1.27,1.27a2,2,0,0,0,2.76,0l.69-.68a12.48,12.48,0,0,0,3.82,1.58v1a2,2,0,0,0,2,2h1.8a2,2,0,0,0,2-2v-1a12.48,12.48,0,0,0,3.82-1.58l.69.68a2,2,0,0,0,2.76,0l1.27-1.27a2,2,0,0,0,0-2.76l-.68-.69a12.48,12.48,0,0,0,1.58-3.82h1a2,2,0,0,0,2-2V15.1A2,2,0,0,0,29.26,13.15Zm1,3.75a1,1,0,0,1-1,1H27.48l-.08.4a11.5,11.5,0,0,1-1.74,4.21l-.23.34,1.26,1.26a1,1,0,0,1,0,1.35l-1.27,1.27a1,1,0,0,1-1.35,0l-1.26-1.26-.34.23a11.5,11.5,0,0,1-4.21,1.74l-.4.08v1.79a1,1,0,0,1-1,1H15.1a1,1,0,0,1-1-1V27.48l-.4-.08a11.5,11.5,0,0,1-4.21-1.74l-.34-.23L7.93,26.69a1,1,0,0,1-1.35,0L5.31,25.41a1,1,0,0,1,0-1.35l1.26-1.26-.23-.34A11.5,11.5,0,0,1,4.6,18.25l-.08-.4H2.74a1,1,0,0,1-1-1V15.1a1,1,0,0,1,1-1H4.52l.08-.4A11.5,11.5,0,0,1,6.35,9.53l.23-.34L5.31,7.93a1,1,0,0,1,0-1.35L6.59,5.31a1,1,0,0,1,1.35,0L9.19,6.57l.34-.23A11.5,11.5,0,0,1,13.75,4.6l.4-.08V2.74a1,1,0,0,1,1-1h1.8a1,1,0,0,1,1,1V4.52l.4.08a11.5,11.5,0,0,1,4.21,1.74l.34.23,1.26-1.26a1,1,0,0,1,1.35,0l1.27,1.27a1,1,0,0,1,0,1.35L25.43,9.19l.23.34a11.5,11.5,0,0,1,1.74,4.21l.08.4h1.79a1,1,0,0,1,1,1Z"/><path d="M16,8.54A7.46,7.46,0,1,0,23.46,16,7.47,7.47,0,0,0,16,8.54Zm0,13.92A6.46,6.46,0,1,1,22.46,16,6.47,6.47,0,0,1,16,22.46Z"/></g><text x="0" y="47" fill="#000000" font-size="5px" font-weight="bold" font-family="'Helvetica Neue', Helvetica, Arial-Unicode, Arial, Sans-serif">Created by iconix user</text><text x="0" y="52" fill="#000000" font-size="5px" font-weight="bold" font-family="'Helvetica Neue', Helvetica, Arial-Unicode, Arial, Sans-serif">from the Noun Project</text></svg>